
<svg width="82" height="97" viewBox="0 0 82 97" fill="none" xmlns="http://www.w3.org/2000/svg">
<path d="M39.9813 96.4428C46.3816 96.4523 52.7729 96.3531 57.6307 96.1381C60.0612 96.0305 62.0997 95.8947 63.5604 95.7299C64.2926 95.6473 64.8659 95.5583 65.2665 95.4662C65.4682 95.4199 65.6106 95.3769 65.701 95.3393C65.7238 95.3298 65.7395 95.3207 65.7509 95.3149C66.1848 94.6762 66.2092 94.0648 65.9178 93.4555C65.6026 92.7965 64.8963 92.1016 63.7899 91.4428C61.724 90.2128 58.4449 89.2146 54.4677 88.7856L53.663 88.7075C50.0165 88.4059 47.7085 88.1007 46.3134 87.558C45.6014 87.2811 45.073 86.9224 44.7323 86.4243C44.3906 85.9245 44.2811 85.3474 44.2811 84.7231C44.2811 83.964 44.0986 83.3405 43.8387 82.9233C43.5758 82.5013 43.2758 82.3442 43.0282 82.3442C42.969 82.3442 42.8908 82.365 42.7889 82.4868C42.6789 82.6184 42.5645 82.8444 42.4755 83.183C42.3203 83.7734 42.2669 84.6064 42.3593 85.5912L42.4081 86.0219L42.4091 86.0248C42.5295 86.9795 42.6429 87.6419 42.8534 88.1371C43.0493 88.598 43.33 88.9145 43.829 89.1635C44.3575 89.4272 45.1392 89.6189 46.3446 89.769C47.2433 89.8808 48.3496 89.9671 49.7216 90.0512L51.1835 90.1352H51.1884C53.5925 90.2876 55.9636 90.5545 57.8602 90.8998C58.8076 91.0724 59.6471 91.2665 60.3173 91.4789C60.8824 91.6581 61.3872 91.8688 61.7255 92.1284L61.8602 92.2426C61.9225 92.3019 61.9971 92.3915 62.0389 92.5161C62.0845 92.6518 62.0798 92.7967 62.0282 92.9282C61.9401 93.1519 61.7446 93.269 61.6405 93.3237C61.3991 93.4504 61.0321 93.5463 60.6005 93.6284C59.71 93.7977 58.3151 93.9464 56.4686 94.0698C52.7671 94.3171 47.1764 94.4692 39.9999 94.4692C32.8233 94.4692 27.2326 94.3171 23.5311 94.0698C21.6847 93.9464 20.2897 93.7977 19.3993 93.6284C18.9676 93.5462 18.6006 93.4504 18.3593 93.3237C18.2551 93.269 18.0596 93.1519 17.9716 92.9282C17.9199 92.7966 17.9161 92.6519 17.9618 92.5161C17.9827 92.4539 18.0113 92.4003 18.0428 92.3549L18.1395 92.2426C18.469 91.9293 19.0376 91.6837 19.6835 91.4789C20.3536 91.2666 21.1932 91.0723 22.1405 90.8998C23.8001 90.5976 25.8227 90.3556 27.913 90.1977L28.8124 90.1352H28.8182L37.1473 89.7036L37.5897 84.5297V84.5229C37.8277 82.1092 38.1512 80.5001 38.9374 79.4106C39.6486 78.425 40.6862 77.9292 42.1229 77.5639L42.7635 77.4145L42.7684 77.4135C47.8911 76.3642 54.3023 73.8829 59.4354 71.2631C62.0012 69.9536 64.2295 68.6185 65.8085 67.4233C66.5993 66.8247 67.2114 66.2723 67.621 65.7875C67.9638 65.3818 68.1205 65.0723 68.1688 64.8559C68.0853 64.8622 67.9622 64.8811 67.7938 64.9311C67.2295 65.0988 66.4039 65.5201 65.4716 66.185L65.4637 66.1909L65.4559 66.1957L65.0233 66.4721C62.8317 67.8408 58.2805 70.2548 54.1542 72.1909L53.2772 72.5981C49.6817 74.2696 47.0846 75.2766 44.2509 75.7807C41.7737 76.2213 39.1382 76.2739 35.5223 76.0766L33.91 75.977C28.2773 75.67 21.8966 74.2186 16.7196 72.3295C14.1298 71.3845 11.8247 70.3234 10.0585 69.2319C9.17545 68.6861 8.41655 68.1273 7.82214 67.5629C7.30507 67.072 6.89418 66.5607 6.64148 66.0346L6.54382 65.81C6.17745 64.8809 5.99788 64.0804 6.08289 63.4565C6.12708 63.1327 6.24618 62.8317 6.47058 62.5961C6.69629 62.3593 6.99034 62.2287 7.30847 62.1772C7.9166 62.0789 8.68551 62.2559 9.54968 62.6049C10.3219 62.9169 11.2258 63.39 12.2499 64.017L12.6962 64.2953L12.701 64.2983C16.7323 66.9292 20.2663 68.6059 24.2001 69.5551C27.8925 70.446 31.9632 70.702 37.1649 70.4819L38.2206 70.4321C42.5102 70.2054 45.5764 69.8284 48.3339 69.0659C50.7421 68.3999 52.9331 67.4344 55.5106 65.9936L56.6415 65.3461C67.4758 59.017 73.2746 49.5214 74.204 36.8012L74.245 36.1928C74.562 30.7645 74.3209 26.6182 73.3241 22.8823C72.3906 19.3836 70.7862 16.2163 68.3104 12.6762L67.8036 11.9633L67.7997 11.9575C66.9932 10.807 66.396 9.80235 66.0194 8.95941C65.652 8.13698 65.4581 7.38952 65.5653 6.78949C65.6221 6.47194 65.7661 6.18508 66.0155 5.97015C66.2597 5.75988 66.5664 5.65212 66.8934 5.61176C67.5297 5.5333 68.356 5.69884 69.3309 6.04633L69.3319 6.04535C70.5667 6.48028 71.7884 7.72522 72.9227 9.38519C74.0722 11.0674 75.1887 13.2617 76.1835 15.727C78.1725 20.6565 79.7018 26.734 80.0243 32.101L80.0233 32.102C80.3423 36.4276 80.3473 39.3249 79.7753 42.103C79.2747 44.5339 78.3382 46.8488 76.829 49.9311L76.1464 51.3022C74.0439 55.5674 71.9422 59.5969 71.1385 61.1293C71.3791 60.9964 71.6832 60.8009 72.0477 60.5317C76.5952 56.9366 79.7541 49.3681 80.9628 40.9272C82.1689 32.5032 81.409 23.3654 78.2772 16.7368C76.2188 12.4453 73.9758 9.04972 71.8563 6.88617C70.7961 5.80392 69.7858 5.04928 68.8641 4.63617C67.9524 4.22751 67.158 4.16493 66.4794 4.40668C65.3681 4.84185 64.6325 6.13656 64.4833 7.59125C64.3332 9.05385 64.8011 10.3928 65.7479 10.933L65.7675 10.9448C66.3527 11.3158 66.7151 11.8437 66.8446 12.435C66.9727 13.0197 66.8662 13.6317 66.58 14.1762L66.5546 14.2241L66.5204 14.2661L66.4579 14.3334C66.1395 14.6528 65.6891 14.7011 65.2831 14.6479C64.8419 14.59 64.3307 14.4016 63.7811 14.1254C62.675 13.5697 61.2862 12.5939 59.7577 11.2934L59.7499 11.2875L59.743 11.2807C50.1342 2.44244 36.9222 -0.981794 25.7919 2.14886H25.7909C24.2974 2.59777 22.7661 3.1579 21.494 3.71625C20.2068 4.28123 19.2528 4.81607 18.8397 5.20258C18.8111 5.23387 18.7856 5.26485 18.7606 5.2934C18.8584 5.27903 18.9722 5.26005 19.1034 5.23383C19.5227 5.15 20.0662 5.01286 20.7391 4.82465V4.82367C24.5349 3.7485 29.5583 3.10065 34.2284 2.96722C38.869 2.83465 43.2577 3.20641 45.7557 4.2309L50.537 6.05023L51.9872 6.60101L50.4882 7.00043L46.5038 8.06097L46.3778 7.59125L46.5038 8.06195L46.4911 8.06488L46.0458 8.18011C45.0497 8.46454 44.3389 8.84485 43.8964 9.27972C43.414 9.75376 43.2333 10.3063 43.3602 10.9702L43.3593 10.9711C43.7384 12.8026 42.3925 14.5089 40.6561 15.1694L40.6356 15.1762L40.6151 15.1821L40.3221 15.2719C38.8275 15.7611 36.8538 16.8385 35.828 17.5336C35.2119 17.9917 35.0036 18.4665 35.0087 18.892C35.014 19.3394 35.2561 19.855 35.785 20.3666C36.8447 21.3914 38.8994 22.2348 41.4344 22.2348C44.131 22.2348 46.6867 23.5142 48.0653 25.6391C48.5798 26.408 49.277 27.0324 49.9784 27.4086C50.6032 27.7438 51.1728 27.8534 51.6073 27.768L51.785 27.7202C52.22 27.565 52.797 27.5694 53.41 27.6498C54.041 27.7327 54.7816 27.9065 55.5839 28.1479C57.1897 28.6312 59.0889 29.4007 60.9413 30.3198V30.3188L60.9471 30.3217C62.4977 31.1157 63.7036 31.7514 64.618 32.3344C65.5318 32.9169 66.1983 33.4736 66.6337 34.1274C67.4076 35.2895 67.3684 36.642 67.0848 38.6049L66.9501 39.4848V39.4868L66.8055 40.2768C65.1626 48.3969 58.9253 55.3924 51.118 59.6801C43.0565 64.1075 33.222 65.7033 24.8456 62.6098C23.8656 62.2742 23.0824 61.998 22.5233 61.7055C21.9639 61.4128 21.5067 61.042 21.3651 60.4584C21.2319 59.909 21.4183 59.3104 21.7196 58.6674C21.9518 58.1719 22.2875 57.5813 22.7079 56.8725L23.1561 56.1235L23.1571 56.1215C24.8497 53.3413 25.252 50.4886 24.5966 48.102C23.9432 45.7231 22.2279 43.7618 19.5858 42.7553C16.9951 41.8608 15.0205 41.7162 13.7294 42.1703C13.0974 42.3927 12.6301 42.7573 12.3153 43.2563C11.9972 43.7607 11.8124 44.4382 11.8124 45.3168C11.8124 46.7149 11.6107 47.8062 11.2157 48.5463C11.0155 48.9213 10.7551 49.2267 10.4266 49.4233C10.0919 49.6235 9.71711 49.6922 9.33289 49.6401C8.59292 49.5395 7.85302 49.0002 7.16785 48.2006C6.55682 47.4875 5.94355 46.5144 5.36414 45.2983L5.11804 44.7621L5.11609 44.7582C4.55854 43.4706 4.13319 42.4511 3.84753 41.6313C3.56439 40.8187 3.40133 40.1567 3.40125 39.5961C3.40125 39.0045 3.5832 38.5324 3.9491 38.1284C4.20504 37.8458 4.54285 37.6064 4.93152 37.3764L5.33582 37.1479L5.34167 37.145C6.00049 36.7968 6.58693 36.3079 7.00378 35.808C7.43596 35.2898 7.62488 34.835 7.62488 34.5561C7.62491 34.3538 7.6839 34.1411 7.75769 33.9448C7.83459 33.7402 7.94308 33.5134 8.0741 33.2729C8.33646 32.7913 8.70812 32.2191 9.15222 31.5952C10.0417 30.3455 11.2489 28.8538 12.5321 27.4047L12.537 27.3989L12.5419 27.394C13.8503 25.9989 14.8719 24.8106 15.6132 23.8159C16.3606 22.8128 16.7971 22.0403 16.9706 21.4711C17.1408 20.9125 17.0294 20.6769 16.8798 20.5453C16.6672 20.3586 16.193 20.2036 15.2968 20.2036C14.865 20.2035 14.4226 20.0519 14.0038 19.8266C13.5804 19.5988 13.1494 19.2784 12.7303 18.8998C11.9972 18.2375 11.2725 17.3698 10.661 16.4282L10.4061 16.02L10.3993 16.0092L8.57117 12.7817L6.63074 15.7338L6.6239 15.7426L6.22839 16.3325C-1.91561 28.7648 0.362178 44.9914 11.9852 56.6342L11.9901 56.6391L11.995 56.645C13.3625 58.0985 14.3909 59.4212 14.9774 60.477C15.2682 61.0005 15.4706 61.4934 15.5331 61.9243C15.5958 62.3567 15.5262 62.8372 15.1219 63.145L15.08 63.1762L15.0331 63.1987L14.8192 63.2905C13.7348 63.7103 12.4571 63.5071 11.7001 62.4272L11.6864 62.4077C11.4069 61.9646 10.921 61.6247 10.2831 61.4125C9.64675 61.201 8.89104 61.1283 8.13171 61.1987C6.57527 61.3431 5.21292 62.0545 4.76062 63.0942C4.37908 64.04 4.61743 65.1679 5.55554 66.4545C6.4945 67.7423 8.07955 69.1048 10.1844 70.433C14.3873 73.0851 20.544 75.5291 27.3505 76.9594L27.3514 76.9584C29.1827 77.337 30.6156 77.6538 31.7284 77.9799C32.836 78.3046 33.6736 78.6517 34.285 79.1147C35.5784 80.0941 35.7186 81.4823 35.7186 83.5112C35.7186 84.5615 35.7007 85.422 35.5526 86.0952C35.3979 86.7979 35.0898 87.3507 34.4862 87.725C33.9212 88.0754 33.1515 88.2333 32.1669 88.3149C31.1712 88.3974 29.8742 88.4067 28.2059 88.4067C24.7968 88.4068 20.8124 89.5911 17.9012 91.1332C16.4438 91.9053 15.2962 92.7458 14.6249 93.5366C13.9815 94.2946 13.8752 94.8681 14.0868 95.2973C14.0995 95.3029 14.1156 95.311 14.1366 95.3188C14.2358 95.3557 14.3863 95.3981 14.5936 95.4418C15.0059 95.5289 15.59 95.6124 16.33 95.6918C17.8072 95.8503 19.8591 95.9852 22.2997 96.0952C27.1784 96.315 33.5809 96.4333 39.9813 96.4428ZM66.8309 30.4702C66.3209 30.8107 65.65 30.8429 64.9481 30.7094C63.6272 30.4581 61.8683 29.5603 59.868 28.1284L59.4647 27.8344L59.4628 27.8334C58.3959 27.0363 57.1341 26.4179 55.9325 26.0551C54.7941 25.7114 53.7627 25.6129 53.0204 25.7621L52.8759 25.7953L52.8661 25.7973L52.4803 25.8764C50.573 26.2033 48.872 25.5404 48.1532 23.8559C47.9039 23.3225 47.3048 22.7835 46.4071 22.3745C45.5206 21.9705 44.3962 21.7192 43.1874 21.7192C41.6493 21.7192 40.3969 21.5843 39.4589 21.3373C38.5539 21.099 37.8148 20.7234 37.4901 20.1342C37.117 19.4568 37.4002 18.7557 37.9393 18.1889C38.4116 17.6925 39.1572 17.1997 40.1522 16.7221L40.5936 16.518C42.889 15.4993 44.2809 13.6672 44.2811 12.1254C44.2811 10.8101 45.0007 9.84483 46.08 9.24457C47.1385 8.65584 48.556 8.4036 50.0731 8.44281C53.1066 8.52131 56.7453 9.77123 59.163 12.2289L59.162 12.2299C60.8923 13.9555 62.9919 17.2689 64.6503 20.518C65.4838 22.151 66.2151 23.7848 66.7391 25.2172C67.2567 26.6319 67.5936 27.9068 67.5936 28.7973C67.5935 29.5054 67.3674 30.112 66.8309 30.4702ZM37.8944 69.7827C32.6708 70.0596 27.4189 69.5718 23.7479 68.1967L23.4052 68.0639C21.3145 67.261 19.8385 66.4823 18.9462 65.7953C18.5053 65.4559 18.1666 65.1087 17.9852 64.7573C17.7923 64.3834 17.7546 63.9372 18.0575 63.5668C18.3141 63.2531 18.7368 63.1031 19.1688 63.0307C19.6215 62.9549 20.1879 62.9473 20.8495 63.0063C22.1758 63.1245 23.9592 63.515 26.1337 64.2426L26.1327 64.2436C36.459 67.6134 48.9523 64.7842 58.0448 56.9877L58.4745 56.6127L58.4823 56.6059C67.2294 49.1788 70.7194 35.7496 67.5634 22.2426C67.1222 20.3735 66.9574 18.9853 67.0311 18.0854C67.0669 17.6498 67.1649 17.2356 67.4003 16.9536C67.5285 16.7999 67.7012 16.6822 67.9149 16.6381C68.1227 16.5953 68.3221 16.6312 68.494 16.6996C68.8221 16.8302 69.1366 17.1113 69.4305 17.4545C69.734 17.8089 70.0556 18.2781 70.3876 18.851C70.9691 19.8546 71.5997 21.2068 72.2333 22.8871L72.5057 23.6274L72.5077 23.6332C73.656 26.9873 73.9292 31.9559 73.4882 36.8559C73.0607 41.6038 71.9544 46.3765 70.2489 49.642L70.0819 49.9536L70.0809 49.9545L69.7626 50.5112C68.0992 53.3159 65.426 56.4585 62.4364 59.2836C59.247 62.2976 55.6597 64.9854 52.4911 66.5307H52.4901C48.7402 68.3902 43.2876 69.4967 37.8944 69.7827ZM4.93738 35.3598C4.01887 35.3597 3.47388 34.6635 3.20203 33.8246C2.92873 32.9813 2.86294 31.8355 2.96472 30.5385C3.15655 28.0942 3.95574 24.9588 5.32117 21.9145L5.60144 21.3071C6.08117 20.2807 6.49599 19.4531 6.85632 18.8188C7.21075 18.1949 7.5349 17.718 7.8407 17.4272C7.99354 17.2819 8.17939 17.1465 8.39832 17.0883C8.64434 17.0231 8.89061 17.0669 9.09753 17.2123C9.28146 17.3416 9.40552 17.53 9.49402 17.7104C9.58251 17.8908 9.65477 18.105 9.71765 18.3403C9.93104 19.0166 10.3225 19.6225 10.7938 20.0541C11.2679 20.4883 11.79 20.7191 12.2684 20.7192C13.1284 20.7192 13.8595 20.8491 14.3378 21.2143C14.592 21.4084 14.7697 21.6664 14.8466 21.9789C14.9211 22.2822 14.8919 22.6001 14.8007 22.9125C14.6215 23.5257 14.1734 24.2249 13.5253 24.9936C13.0329 25.5776 12.4052 26.2239 11.6473 26.9301L10.8466 27.6557C9.75611 28.6186 8.78633 29.6898 8.09363 30.6596C7.74728 31.1445 7.47638 31.596 7.29382 31.9887C7.10704 32.3906 7.03113 32.6923 7.03113 32.8891C7.03112 34.1 6.28093 35.3598 4.93738 35.3598ZM20.5565 57.8276C19.526 58.6798 18.3672 58.9381 17.2391 58.7143C16.1282 58.4939 15.0873 57.8154 14.2294 56.8686C12.569 55.0362 11.5001 52.0983 11.8915 49.0229L11.9344 48.725V48.7221C12.333 46.2965 12.9969 44.6188 14.3876 43.8891C15.0811 43.5253 15.8969 43.4303 16.83 43.5317C17.6437 43.6201 18.5721 43.8607 19.6298 44.228L20.0917 44.393L20.0966 44.395C21.0818 44.7697 21.7737 45.7075 22.2245 46.809C22.6809 47.9243 22.9275 49.2939 22.9686 50.683C23.0098 52.0736 22.846 53.5123 22.4589 54.7709C22.0765 56.0142 21.4595 57.1324 20.5555 57.8276H20.5565Z" fill="black" stroke="#2563EB"/>
<path d="M36.4661 56.5014C37.3879 57.8782 38.6442 58.4391 40.1028 58.2719C41.6029 58.1 43.3781 57.1485 45.2346 55.3413C46.9682 53.6538 48.739 51.2509 50.3831 48.146L50.7102 47.5151C52.3988 44.1505 53.2202 42.3887 53.3684 40.8921C53.4938 39.6255 53.1372 38.5156 52.2424 36.6782L51.8264 35.8442L51.8215 35.8354C50.8824 33.9004 50.0156 32.7424 48.8293 31.9614C47.7799 31.2705 46.4376 30.8456 44.4719 30.4975L43.5901 30.352C41.9098 30.1236 40.0699 29.8195 38.467 29.4956C37.0754 29.2144 35.8282 28.9116 35.0227 28.6225L34.7219 28.5063C33.4831 28.0352 31.6211 28.5299 29.7268 30.1782L29.3479 30.5229C28.2752 31.543 27.5118 32.3556 27.0334 33.0591C26.5588 33.757 26.4 34.2966 26.4524 34.7876C26.5059 35.2883 26.7891 35.8408 27.4231 36.5385C28.0562 37.2354 28.9925 38.0271 30.2649 39.0102L30.2639 39.0112C32.1177 40.3917 33.3142 41.5898 34.0227 43.2026C34.725 44.8014 34.9221 46.7489 34.9221 49.561C34.9221 52.8097 35.5231 55.0929 36.4661 56.5014ZM43.4338 55.2378C42.1399 56.1401 40.8618 56.4381 39.4631 56.2719L39.4553 56.271L39.4475 56.269C38.6849 56.1545 38.0199 56.0135 37.4817 55.7466C36.9183 55.4671 36.503 55.0554 36.2346 54.4409C35.977 53.8508 35.8646 53.0968 35.8391 52.144C35.8199 51.4253 35.8506 50.5671 35.9172 49.5424L35.9954 48.4604V48.4594C36.2346 45.5013 36.1812 43.7879 35.6692 42.4663C35.2273 41.3258 34.4235 40.4256 33.0061 39.2573L32.3596 38.7387C30.8549 37.6156 29.7956 36.4697 29.1868 35.3833C28.5782 34.2972 28.3941 33.2169 28.7561 32.2905C29.1211 31.3569 29.9865 30.7179 31.1731 30.4028C32.3552 30.089 33.9065 30.0789 35.7786 30.4262L35.7795 30.4253C38.5048 30.8826 42.6285 31.6376 44.6946 31.9399L44.7024 31.9409L44.7092 31.9419C46.702 32.2972 48.3053 33.0839 49.4709 34.2358C50.6383 35.3894 51.3391 36.8827 51.5715 38.6001C52.0334 42.0139 50.6468 46.3058 47.427 50.7505C45.9815 52.8888 44.7049 54.3513 43.4338 55.2378Z" fill="black" stroke="#2563EB"/>
</svg>
